<?xml version="1.0" standalone="no"?>
<!DOCTYPE svg PUBLIC "-//W3C//DTD SVG 20010904//EN"
 "http://www.w3.org/TR/2001/REC-SVG-20010904/DTD/svg10.dtd">
<svg version="1.0" xmlns="http://www.w3.org/2000/svg"
 width="447.000000pt" height="559.000000pt" viewBox="0 0 447.000000 559.000000"
 preserveAspectRatio="xMidYMid meet">

<g transform="translate(0.000000,559.000000) scale(0.100000,-0.100000)"
fill="#892CDC" stroke="#892CDC">
<path d="M2640 5393 c-287 -49 -506 -137 -580 -231 -50 -63 -35 45 16 124 10
14 32 31 50 39 30 12 48 36 27 34 -24 -2 -74 -27 -99 -49 -63 -56 -69 -68 -74
-154 l-5 -81 -37 0 c-45 0 -51 -6 -76 -71 -17 -47 -42 -85 -142 -224 -45 -63
-80 -148 -111 -268 l-21 -83 26 -102 c37 -145 148 -478 184 -552 11 -22 28
-67 37 -100 9 -33 32 -96 51 -141 19 -45 34 -94 35 -110 0 -16 3 -23 6 -16 7
18 23 4 23 -20 0 -47 -91 -158 -130 -158 -6 0 -38 -18 -70 -40 -33 -22 -68
-43 -77 -46 -96 -33 -461 -200 -478 -219 -5 -7 -32 -25 -60 -40 -72 -41 -197
-136 -318 -242 -27 -24 -79 -64 -115 -89 -188 -131 -340 -296 -423 -456 -38
-75 -111 -277 -143 -398 -29 -108 -62 -342 -70 -509 -4 -62 -11 -134 -17 -160
-18 -81 -39 -205 -39 -235 0 -48 12 -21 26 56 33 180 45 266 64 453 14 141 28
231 49 305 93 331 105 362 224 540 78 117 114 154 337 348 85 74 162 143 170
152 8 10 40 35 70 55 30 21 72 53 93 72 21 18 63 46 95 61 31 16 75 40 98 54
90 57 238 128 369 175 39 14 93 39 122 55 45 26 113 52 113 44 0 -29 94 -349
121 -412 25 -57 121 -173 172 -207 157 -103 230 -148 302 -182 77 -38 84 -39
185 -39 99 -1 109 1 165 31 73 37 191 157 225 228 42 87 29 230 -34 375 -5 11
8 24 45 45 62 36 89 80 89 147 0 71 34 147 106 240 143 183 172 225 184 263 9
26 14 120 15 271 l3 231 25 27 c61 65 83 145 98 353 17 249 -9 354 -134 528
-59 83 -121 142 -197 189 -66 40 -259 95 -374 106 -57 5 -81 12 -88 24 -9 16
-49 19 -108 9z m126 -578 c56 -27 114 -78 114 -101 0 -19 -4 -18 -53 13 -89
57 -149 113 -120 113 3 0 30 -11 59 -25z m184 -120 c11 -13 10 -14 -4 -9 -9 3
-16 10 -16 15 0 13 6 11 20 -6z m-138 -6 c11 -6 54 -19 94 -29 61 -14 83 -25
123 -61 54 -50 83 -94 102 -157 19 -66 49 -92 104 -92 37 0 45 -3 45 -19 0
-10 8 -29 19 -42 18 -24 39 -62 83 -149 20 -41 22 -61 22 -205 1 -229 -16
-281 -147 -452 -124 -161 -167 -243 -167 -315 0 -82 -42 -132 -143 -170 -148
-56 -460 20 -677 165 -60 40 -156 133 -187 180 -34 54 -51 145 -45 247 4 84 4
85 -19 87 -25 3 -74 26 -122 57 -16 11 -41 44 -57 75 -46 91 -60 155 -60 267
0 99 1 103 26 123 15 12 29 21 33 21 3 0 28 -17 56 -38 87 -66 143 -195 145
-332 1 -60 19 -96 45 -87 31 13 37 57 30 242 -7 168 -6 184 14 244 44 129 67
144 156 102 35 -17 69 -31 74 -31 17 0 13 35 -8 61 -45 58 -64 111 -58 165 5
53 24 94 42 94 5 -1 26 -14 45 -30 40 -35 74 -43 46 -11 -10 11 -13 22 -8 25
6 3 24 -11 41 -32 40 -52 157 -111 233 -119 76 -8 130 3 126 25 -2 13 -16 18
-51 20 -41 3 -54 9 -88 43 -45 45 -61 78 -47 96 7 8 17 9 34 2 39 -14 190 -23
197 -12 4 6 -6 13 -21 16 -15 3 -36 13 -47 21 -23 18 -13 21 17 5z m-770
-1286 c8 -29 28 -71 44 -94 144 -208 561 -389 803 -350 36 6 67 9 69 7 12 -12
42 -159 42 -206 0 -147 -65 -283 -159 -333 -115 -61 -298 -75 -401 -29 -68 30
-238 147 -299 205 -51 50 -113 134 -137 187 -20 44 -92 233 -112 295 -35 108
-35 111 -2 138 16 14 43 47 60 73 31 50 38 93 20 139 -7 19 -6 39 4 73 8 26
20 67 27 92 l13 45 7 -95 c4 -52 13 -119 21 -147z"/>
<path d="M3106 2940 c38 -28 139 -100 224 -162 85 -62 194 -135 241 -163 123
-73 241 -159 324 -238 66 -62 77 -78 113 -166 42 -102 72 -202 72 -242 0 -12
-36 -95 -79 -183 -131 -266 -212 -466 -231 -565 -6 -30 -24 -87 -42 -125 -72
-163 -124 -278 -173 -386 -101 -218 -137 -326 -150 -450 -3 -30 -12 -92 -21
-138 -18 -94 -14 -115 18 -110 21 3 24 11 34 93 13 98 20 131 65 310 19 79 47
156 81 225 28 58 55 114 59 125 4 11 35 81 69 155 61 133 166 438 175 510 3
17 80 196 144 335 37 79 44 88 53 71 6 -11 11 -58 12 -105 1 -103 -20 -361
-32 -413 -11 -42 -17 -252 -16 -503 l1 -170 51 -200 c28 -110 60 -251 71 -314
11 -62 22 -116 25 -118 3 -3 8 7 12 22 9 37 -22 218 -57 330 -15 50 -39 147
-53 218 -25 126 -25 130 -15 375 5 136 16 306 25 377 8 72 17 234 20 360 7
273 2 308 -78 500 -46 111 -62 138 -109 185 -71 73 -223 185 -329 245 -47 26
-128 78 -180 114 -165 116 -370 251 -382 251 -6 0 20 -23 58 -50z"/>
<path d="M1260 1390 c-6 -11 -24 -84 -40 -162 -29 -148 -42 -193 -91 -316 -16
-40 -29 -90 -29 -111 0 -23 21 -94 49 -168 59 -154 76 -245 61 -322 -5 -29
-10 -77 -10 -106 l0 -52 43 7 c23 4 78 20 122 35 77 26 85 27 205 20 125 -6
244 -21 395 -49 207 -37 402 -45 756 -31 141 6 176 4 225 -10 65 -18 136 -55
174 -91 24 -22 70 -25 70 -4 0 18 -53 70 -95 94 -121 67 -291 92 -455 66 -185
-29 -404 -18 -720 36 -80 14 -215 30 -301 36 -172 12 -227 4 -332 -49 l-49
-24 9 68 c18 148 3 239 -67 407 -22 53 -40 112 -40 131 0 20 16 77 36 128 31
78 70 245 99 420 5 32 9 37 26 32 21 -7 25 5 7 23 -18 18 -36 15 -48 -8z"/>
<path d="M2460 1374 c-74 -7 -200 -13 -279 -13 -96 -1 -184 -8 -268 -22 -116
-20 -140 -20 -346 -11 -122 5 -228 11 -236 13 -24 7 -23 -19 1 -32 27 -15 258
-33 413 -32 65 0 138 7 180 17 98 24 520 42 895 38 279 -2 397 -9 660 -41 41
-5 119 -12 173 -16 93 -6 97 -5 97 14 0 18 -6 21 -40 21 -37 0 -356 34 -425
45 -45 8 -567 35 -632 34 -32 -1 -119 -7 -193 -15z"/>
</g>
</svg>
